<svg xmlns="http://www.w3.org/2000/svg" width="24" height="24" viewBox="0 0 24 24"><g transform="translate(0)"><path d="M23.254,154.112a12.1,12.1,0,0,0,0-8.369L12,144.7.746,145.742a12.1,12.1,0,0,0,0,8.369L12,155.158Z" transform="translate(0 -137.927)" fill="#f0f0f0"/><path d="M27.174,352.889a12,12,0,0,0,11.252-7.846h-22.5A12,12,0,0,0,27.174,352.889Z" transform="translate(-15.174 -328.889)" fill="#d80027"/><path d="M27.174,0A12,12,0,0,0,15.922,7.846h22.5A12,12,0,0,0,27.174,0Z" transform="translate(-15.174)" fill="#6da544"/><path d="M3.523,74.98a11.956,11.956,0,0,0,0,16.952l4.323-4.307V79.287Z" transform="translate(0 -71.456)"/></g></svg>