<svg xmlns="http://www.w3.org/2000/svg" width="48" height="24" viewBox="0 0 48 24">
  <g id="svgexport-16" transform="translate(-1.6 -130.15)">
    <path id="Path_11" data-name="Path 11" d="M340.135,217.841a6.316,6.316,0,1,0,6.316-6.321A6.323,6.323,0,0,0,340.135,217.841Zm6.316-5.19a5.187,5.187,0,1,1-5.185,5.19A5.193,5.193,0,0,1,346.451,212.652Z" transform="translate(-306.566 -73.408)" fill="#fff"/>
    <path id="Path_12" data-name="Path 12" d="M368.014,240.759a.566.566,0,0,0,.722-.344,2.78,2.78,0,0,1,2.228-1.827.566.566,0,1,0-.162-1.12,3.908,3.908,0,0,0-3.133,2.569A.566.566,0,0,0,368.014,240.759Z" transform="translate(-331.499 -97.058)" fill="#fff"/>
    <path id="Path_13" data-name="Path 13" d="M11.334,154.15a9.762,9.762,0,0,0,9.337-7.078,5.845,5.845,0,0,0,2.919-2.011,2.556,2.556,0,0,1,4.02,0,5.843,5.843,0,0,0,2.919,2.01,9.75,9.75,0,1,0,9.337-12.606c-.11,0-.217.013-.326.017a5.563,5.563,0,0,0-3.94-1.62H28.8a3.241,3.241,0,0,0-6.394,0H15.6a5.563,5.563,0,0,0-3.94,1.62c-.109,0-.216-.017-.326-.017a9.843,9.843,0,0,0,0,19.685Zm28.532-18.538a8.7,8.7,0,1,1-8.556,7.812s0-.006,0-.009A8.68,8.68,0,0,1,39.866,135.612ZM25.6,131.3a2.13,2.13,0,0,1,2.116,2.128s0,.007,0,.011a2.118,2.118,0,1,1-4.235,0s0-.007,0-.011A2.134,2.134,0,0,1,25.6,131.3Zm-10,2.712h6.8c0,.01.006.018.008.028a3.245,3.245,0,0,0,6.4-.028h6.8a4.461,4.461,0,0,1,2.339.652,9.886,9.886,0,0,0-7.705,11.086,4.936,4.936,0,0,1-1.741-1.4,3.682,3.682,0,0,0-5.786,0,4.94,4.94,0,0,1-1.741,1.4,9.886,9.886,0,0,0-7.705-11.086,4.461,4.461,0,0,1,2.339-.652Zm-4.266,1.6a8.673,8.673,0,0,1,8.554,7.8s0,.006,0,.009A8.678,8.678,0,0,1,11.334,153a8.7,8.7,0,0,1,0-17.392Z" transform="translate(0)" fill="#fff"/>
    <path id="Path_14" data-name="Path 14" d="M44.014,224.158a6.319,6.319,0,1,0-6.316-6.316A6.323,6.323,0,0,0,44.014,224.158Zm0-11.506a5.187,5.187,0,1,1-5.185,5.19A5.193,5.193,0,0,1,44.014,212.653Z" transform="translate(-32.699 -73.409)" fill="#fff"/>
    <path id="Path_15" data-name="Path 15" d="M65.58,240.756a.566.566,0,0,0,.722-.344,2.78,2.78,0,0,1,2.228-1.827.566.566,0,1,0-.162-1.12,3.909,3.909,0,0,0-3.133,2.569.566.566,0,0,0,.345.722Z" transform="translate(-57.614 -97.055)" fill="#fff"/>
  </g>
</svg>
