<svg xmlns="http://www.w3.org/2000/svg" width="29" height="24" viewBox="0 0 29 24">
  <path id="twitter" d="M26.019,54.063c.018.262.018.525.018.788,0,8.006-5.98,17.231-16.911,17.231A16.57,16.57,0,0,1,0,69.363a12.071,12.071,0,0,0,1.435.075,11.763,11.763,0,0,0,7.379-2.587,5.969,5.969,0,0,1-5.557-4.2,7.358,7.358,0,0,0,1.123.094,6.176,6.176,0,0,0,1.564-.206,6.03,6.03,0,0,1-4.766-5.944V56.52a5.9,5.9,0,0,0,2.687.769,6.141,6.141,0,0,1-1.84-8.1,16.793,16.793,0,0,0,12.255,6.338,6.961,6.961,0,0,1-.147-1.387,6,6,0,0,1,5.944-6.056,5.878,5.878,0,0,1,4.343,1.912,11.57,11.57,0,0,0,3.772-1.462,6.021,6.021,0,0,1-2.613,3.337A11.741,11.741,0,0,0,29,50.932a12.911,12.911,0,0,1-2.981,3.131Z" transform="translate(0 -48.082)" fill="#01baef"/>
</svg>
